<?xml version="1.0" standalone="no"?>
<!DOCTYPE svg PUBLIC "-//W3C//DTD SVG 20010904//EN"
 "http://www.w3.org/TR/2001/REC-SVG-20010904/DTD/svg10.dtd">
<svg version="1.0" xmlns="http://www.w3.org/2000/svg"
 width="512.000000pt" height="512.000000pt" viewBox="0 0 512.000000 512.000000"
 preserveAspectRatio="xMidYMid meet">
<metadata>
Created by potrace 1.11, written by Peter Selinger 2001-2013
</metadata>
<g transform="translate(0.000000,512.000000) scale(0.100000,-0.100000)"
fill="#000000" stroke="none">
<path d="M0 2560 l0 -2560 2560 0 2560 0 0 2560 0 2560 -2560 0 -2560 0 0
-2560z m4619 794 c131 -35 239 -122 291 -237 47 -104 46 -109 -30 -129 -36
-10 -69 -17 -73 -15 -5 1 -19 29 -32 61 -60 147 -209 218 -409 196 -148 -17
-266 -101 -326 -233 -38 -84 -50 -150 -50 -265 1 -263 108 -420 325 -477 146
-38 345 1 462 91 l33 25 0 115 0 114 -185 0 -185 0 0 75 0 75 265 0 265 0 0
-234 0 -235 -77 -50 c-156 -103 -313 -147 -483 -138 -180 10 -305 61 -416 172
-121 120 -173 260 -174 466 0 301 150 534 397 613 113 37 282 41 402 10z
m-3781 -4 c120 -11 180 -32 236 -81 126 -111 143 -332 35 -462 -40 -49 -106
-86 -197 -113 l-74 -21 45 -26 c70 -41 135 -121 271 -331 69 -108 126 -198
126 -201 0 -3 -46 -5 -102 -5 l-103 0 -79 128 c-108 172 -196 299 -242 346
-64 65 -98 76 -261 76 l-143 0 0 -275 0 -275 -80 0 -80 0 0 625 0 625 278 0
c152 0 319 -5 370 -10z m1136 -27 c9 -21 124 -301 256 -623 l239 -585 -91 -3
c-50 -1 -93 -1 -95 2 -3 2 -34 80 -69 171 -36 92 -69 176 -75 186 -9 18 -24
19 -267 17 l-256 -3 -53 -145 c-29 -80 -60 -164 -69 -187 l-16 -43 -87 0 -88
0 240 625 241 625 86 0 87 0 17 -37z m1119 -450 l327 -486 0 486 0 487 80 0
80 0 0 -625 0 -625 -85 0 -84 0 -323 482 -323 482 -3 -482 -2 -482 -80 0 -80
0 0 625 0 625 83 0 83 0 327 -487z"/>
<path d="M350 3016 l0 -206 228 0 c125 0 247 5 272 11 93 21 151 85 158 175 7
90 -33 158 -118 198 -41 19 -66 21 -292 24 l-248 4 0 -206z"/>
<path d="M1847 3140 c-9 -39 -53 -169 -97 -288 -44 -120 -80 -221 -80 -225 0
-4 92 -7 205 -7 113 0 205 3 205 7 0 4 -32 93 -71 198 -40 104 -84 227 -99
272 -42 123 -44 124 -63 43z"/>
</g>
</svg>
